<mxfile host="app.diagrams.net" modified="2023-06-28T16:20:15.942Z" agent="Mozilla/5.0 (Windows NT 10.0; Win64; x64) AppleWebKit/537.36 (KHTML, like Gecko) Chrome/114.0.0.0 Safari/537.36" version="21.5.1" etag="mZyNcJedrUqjx4GdTIBC" type="github">
  <diagram name="PÃ¡gina-1" id="aG59Ak9Kq2h_buBXWS13">
    <mxGraphModel>
      <root>
        <mxCell id="0" />
        <mxCell id="1" parent="0" />
      </root>
    </mxGraphModel>
  </diagram>
</mxfile>
